<svg width="171.839844" height="58.250977" viewBox="0 0 171.84 58.251" fill="none" xmlns="http://www.w3.org/2000/svg" xmlns:xlink="http://www.w3.org/1999/xlink">
	<desc>
			Created with Pixso.
	</desc>
	<defs/>
	<path id="Vector" d="M42.29 20.93C38 25.41 38.25 29.17 43.23 32.42C42.06 34.97 40.88 37.6 38.38 39.13C37.49 39.69 35.92 39.73 34.89 39.36C32.83 38.62 30.92 38.49 28.93 39.39C27.38 40.09 25.98 39.89 24.64 38.8C20.84 35.72 18.43 28.03 19.8 23.35C20.87 19.69 25.04 16.23 29.57 18.66C31.27 19.56 32.83 19.13 34.47 18.46C37.7 17.14 40.25 17.99 42.29 20.93Z" fill="#202020" fill-opacity="1.000000" fill-rule="nonzero"/>
	<path id="Vector" d="M36.45 11.65C36.8 15.02 34.61 17.73 31.32 18.13C30.53 15.21 32.92 12.12 36.45 11.65Z" fill="#202020" fill-opacity="1.000000" fill-rule="nonzero"/>
	<path id="Download on the App Store" d="M61.98 25.24L59.29 25.24L59.29 16.82L61.98 16.82Q63.29 16.82 64.25 17.39L64.25 17.39Q64.69 17.66 65.06 18.04Q65.54 18.54 65.82 19.12Q66.24 19.98 66.24 21.04Q66.24 22.12 65.8 23Q65.52 23.56 65.06 24.04C64.29 24.84 63.26 25.24 61.98 25.24ZM91.76 25.24L91.1 25.24L91.1 16.82L91.76 16.82L91.76 25.24ZM112.76 25.24L112.09 25.24L112.09 24.27C111.86 24.59 111.56 24.86 111.18 25.07C110.81 25.28 110.41 25.39 109.97 25.39C109.15 25.39 108.49 25.1 107.99 24.52C107.49 23.94 107.24 23.16 107.24 22.2Q107.24 20.89 107.86 20.04L107.86 20.04Q107.93 19.96 108 19.87C108.5 19.28 109.16 18.99 109.97 18.99C110.84 18.99 111.55 19.37 112.09 20.13L112.09 16.82L112.76 16.82L112.76 25.24ZM143.61 25.24L142.95 25.24L142.95 21.08C142.95 20.53 142.83 20.14 142.58 19.92C142.32 19.7 141.96 19.58 141.48 19.58C141.1 19.58 140.72 19.68 140.35 19.89C139.98 20.09 139.7 20.34 139.5 20.63L139.5 25.24L138.84 25.24L138.84 16.82L139.5 16.82L139.5 20.06C139.74 19.78 140.06 19.53 140.47 19.32Q141.03 19.01 141.6 18.99Q141.65 18.99 141.69 18.99C142.97 18.99 143.61 19.64 143.61 20.95L143.61 25.24ZM61.98 24.58Q63.18 24.58 64 24.03Q64.29 23.83 64.53 23.57Q64.83 23.25 65.04 22.87Q65.48 22.07 65.48 21.04Q65.48 19.98 65.03 19.17Q64.83 18.81 64.54 18.5Q64.3 18.23 64.01 18.04Q63.19 17.48 61.98 17.48L60.01 17.48L60.01 24.58L61.98 24.58ZM136.69 25.39C135.89 25.39 135.49 24.95 135.49 24.06L135.49 19.72L134.48 19.72L134.48 19.14L135.49 19.14L135.49 17.48L136.16 17.48L136.16 19.14L137.39 19.14L137.39 19.72L136.16 19.72L136.16 23.96Q136.16 24.49 136.41 24.68Q136.56 24.8 136.79 24.8C137.07 24.8 137.29 24.7 137.47 24.51L137.72 25.01C137.45 25.26 137.11 25.39 136.69 25.39ZM70.58 25.39C69.71 25.39 69 25.08 68.46 24.47Q68.23 24.2 68.06 23.9Q67.65 23.15 67.65 22.18C67.65 21.27 67.92 20.52 68.46 19.91Q68.78 19.54 69.19 19.32Q69.79 18.99 70.58 18.99C71.46 18.99 72.17 19.3 72.71 19.91Q72.94 20.16 73.1 20.45Q73.52 21.2 73.52 22.18C73.52 23.09 73.25 23.85 72.71 24.47C72.17 25.08 71.46 25.39 70.58 25.39ZM89.06 25.24L88.4 25.24L88.4 21.11C88.4 20.55 88.28 20.16 88.02 19.94C87.77 19.7 87.41 19.58 86.93 19.58C86.55 19.58 86.17 19.68 85.8 19.89C85.43 20.09 85.15 20.34 84.94 20.63L84.94 25.24L84.29 25.24L84.29 19.14L84.94 19.14L84.94 20.06C85.19 19.78 85.51 19.53 85.92 19.32C86.32 19.1 86.73 18.99 87.14 18.99C88.42 18.99 89.06 19.65 89.06 20.97L89.06 25.24ZM96.38 25.39C95.5 25.39 94.8 25.08 94.26 24.47C93.72 23.85 93.45 23.09 93.45 22.18C93.45 21.27 93.72 20.52 94.26 19.91Q94.58 19.54 94.98 19.32Q95.59 18.99 96.38 18.99C97.26 18.99 97.97 19.3 98.51 19.91Q98.74 20.16 98.9 20.45L98.9 20.45Q99.32 21.2 99.32 22.18Q99.32 23.15 98.91 23.9Q98.75 24.2 98.51 24.47C97.97 25.08 97.26 25.39 96.38 25.39ZM105.54 25.24L104.89 25.24L104.89 24.52C104.36 25.1 103.67 25.39 102.82 25.39Q102.39 25.39 102.01 25.25Q101.65 25.11 101.33 24.85Q101.09 24.64 100.94 24.39Q100.68 23.95 100.68 23.36Q100.68 22.7 100.99 22.25Q101.12 22.04 101.32 21.88Q101.61 21.63 101.95 21.5L101.95 21.5Q102.35 21.34 102.82 21.34C103.68 21.34 104.37 21.63 104.89 22.21L104.89 20.97Q104.89 20.56 104.7 20.26Q104.6 20.08 104.42 19.95C104.11 19.7 103.72 19.57 103.25 19.57C102.5 19.57 101.86 19.87 101.34 20.47L100.98 20.01C101.61 19.33 102.39 18.99 103.32 18.99C103.98 18.99 104.51 19.15 104.93 19.48C105.34 19.81 105.54 20.3 105.54 20.95L105.54 25.24ZM120.65 25.39C119.77 25.39 119.06 25.08 118.53 24.47C117.99 23.85 117.72 23.09 117.72 22.18C117.72 21.27 117.99 20.52 118.53 19.91C119.06 19.3 119.77 18.99 120.65 18.99C121.53 18.99 122.24 19.3 122.78 19.91Q123.01 20.16 123.17 20.45Q123.59 21.2 123.59 22.18Q123.59 23.15 123.18 23.9Q123.01 24.2 122.78 24.47C122.24 25.08 121.53 25.39 120.65 25.39ZM130.05 25.24L129.39 25.24L129.39 21.11C129.39 20.55 129.27 20.16 129.02 19.94C128.77 19.7 128.4 19.58 127.92 19.58C127.54 19.58 127.17 19.68 126.8 19.89C126.43 20.09 126.14 20.34 125.94 20.63L125.94 25.24L125.28 25.24L125.28 19.14L125.94 19.14L125.94 20.06C126.18 19.78 126.51 19.53 126.91 19.32C127.31 19.1 127.72 18.99 128.13 18.99C129.41 18.99 130.05 19.65 130.05 20.97L130.05 25.24ZM148.36 25.39C147.46 25.39 146.73 25.09 146.16 24.49C145.59 23.9 145.3 23.13 145.3 22.18Q145.3 21.32 145.64 20.64Q145.84 20.25 146.14 19.92C146.7 19.3 147.4 18.99 148.24 18.99C149.13 18.99 149.84 19.3 150.35 19.92C150.86 20.54 151.12 21.3 151.12 22.22L151.12 22.4L146.02 22.4C146.06 23.09 146.29 23.66 146.72 24.13C147.14 24.59 147.71 24.82 148.41 24.82C149.21 24.82 149.88 24.54 150.4 23.98L150.74 24.4C150.11 25.06 149.32 25.39 148.36 25.39ZM81.07 25.24L80.44 25.24L78.74 20.03L77.02 25.24L76.39 25.24L74.41 19.14L75.12 19.14L76.73 24.32L78.45 19.14L79.02 19.14L80.73 24.32L82.35 19.14L83.05 19.14L81.07 25.24ZM150.45 21.88C150.44 21.29 150.25 20.76 149.86 20.28C149.48 19.8 148.94 19.56 148.23 19.56C147.57 19.56 147.04 19.8 146.64 20.28C146.25 20.75 146.05 21.28 146.02 21.88L150.45 21.88ZM70.58 24.8Q71.2 24.8 71.66 24.53L71.66 24.53Q71.97 24.35 72.21 24.04Q72.37 23.83 72.49 23.61L72.49 23.61Q72.82 22.98 72.82 22.18Q72.82 21.41 72.5 20.79Q72.38 20.56 72.21 20.35Q71.96 20.03 71.63 19.84Q71.18 19.58 70.58 19.58Q70.01 19.58 69.57 19.82Q69.22 20.01 68.95 20.35Q68.81 20.54 68.69 20.75L68.69 20.75Q68.36 21.38 68.36 22.18Q68.36 22.97 68.68 23.59Q68.79 23.82 68.95 24.03Q69.22 24.37 69.57 24.56Q70.01 24.8 70.58 24.8ZM96.38 24.8C97.07 24.8 97.61 24.54 98.01 24.04Q98.17 23.83 98.29 23.61Q98.61 22.98 98.61 22.18Q98.61 21.41 98.29 20.79Q98.17 20.56 98.01 20.35C97.61 19.84 97.07 19.58 96.38 19.58C95.7 19.58 95.15 19.84 94.75 20.35C94.35 20.86 94.16 21.47 94.16 22.18C94.16 22.9 94.35 23.51 94.75 24.03C95.15 24.54 95.7 24.8 96.38 24.8ZM110.08 24.8C110.49 24.8 110.89 24.69 111.26 24.48C111.63 24.27 111.9 24.01 112.09 23.71L112.09 20.69C111.9 20.38 111.63 20.12 111.26 19.91C110.89 19.69 110.49 19.58 110.08 19.58C109.43 19.58 108.9 19.83 108.52 20.33C108.14 20.82 107.95 21.44 107.95 22.2C107.95 22.95 108.14 23.58 108.52 24.06C108.9 24.55 109.43 24.8 110.08 24.8ZM120.65 24.8C121.34 24.8 121.88 24.54 122.27 24.04C122.68 23.53 122.88 22.91 122.88 22.18C122.88 21.47 122.68 20.86 122.27 20.35C121.88 19.84 121.34 19.58 120.65 19.58C119.96 19.58 119.42 19.84 119.02 20.35Q118.87 20.54 118.76 20.75Q118.43 21.38 118.43 22.18Q118.43 22.97 118.74 23.59Q118.86 23.82 119.02 24.03C119.42 24.54 119.96 24.8 120.65 24.8ZM103.05 24.87C103.85 24.87 104.46 24.59 104.89 24.04L104.89 22.7C104.45 22.14 103.84 21.86 103.05 21.86C102.55 21.86 102.15 22 101.83 22.28C101.53 22.57 101.38 22.93 101.38 23.37C101.38 23.81 101.53 24.17 101.83 24.46C102.15 24.73 102.55 24.87 103.05 24.87ZM88.64 39.95C87.15 39.95 85.96 39.51 85.08 38.61L86.06 37.25C86.78 38.01 87.67 38.39 88.73 38.39C89.19 38.39 89.55 38.3 89.8 38.12C90.07 37.94 90.2 37.71 90.2 37.45C90.2 37.23 90.07 37.04 89.83 36.88C89.59 36.73 89.3 36.62 88.93 36.56C88.58 36.49 88.19 36.39 87.77 36.27C87.35 36.14 86.96 36 86.6 35.84C86.25 35.68 85.95 35.42 85.7 35.08C85.47 34.74 85.35 34.31 85.35 33.82C85.35 33.09 85.64 32.49 86.22 32C86.8 31.5 87.58 31.26 88.54 31.26Q90.08 31.26 91.19 31.95Q91.53 32.16 91.82 32.43L90.83 33.74C90.16 33.13 89.34 32.82 88.38 32.82C88 32.82 87.7 32.9 87.5 33.05C87.28 33.2 87.18 33.41 87.18 33.67C87.18 33.87 87.3 34.04 87.53 34.18C87.78 34.32 88.08 34.42 88.43 34.49C88.79 34.55 89.18 34.66 89.59 34.79C90.01 34.92 90.4 35.06 90.75 35.23C91.11 35.39 91.41 35.65 91.65 36C91.89 36.35 92.01 36.76 92.01 37.25C92.01 38.06 91.72 38.71 91.14 39.21C90.57 39.7 89.74 39.95 88.64 39.95ZM66.93 39.8L64.88 39.8L64.37 38.37L60.76 38.37L60.23 39.8L58.18 39.8L61.44 31.38L63.68 31.38L66.93 39.8ZM95.05 39.95C94.49 39.95 94.06 39.81 93.77 39.52C93.47 39.24 93.33 38.82 93.33 38.29L93.33 35.11L92.32 35.11L92.32 33.7L93.33 33.7L93.33 32.04L94.94 32.04L94.94 33.7L96.18 33.7L96.18 35.11L94.94 35.11L94.94 37.86C94.94 38.05 94.99 38.21 95.09 38.34C95.19 38.46 95.33 38.53 95.5 38.53C95.75 38.53 95.93 38.47 96.05 38.35L96.39 39.56Q95.95 39.95 95.05 39.95ZM63.87 36.8L62.56 33.17L61.25 36.8L63.87 36.8ZM71.15 39.95C70.39 39.95 69.76 39.64 69.27 39.02L69.27 42.12L67.67 42.12L67.67 33.7L69.27 33.7L69.27 34.47Q69.64 34.01 70.12 33.78Q70.58 33.55 71.15 33.55C71.95 33.55 72.6 33.84 73.09 34.41C73.6 34.97 73.85 35.75 73.85 36.75C73.85 37.74 73.6 38.52 73.09 39.09C72.6 39.67 71.95 39.95 71.15 39.95ZM78.51 39.95C77.75 39.95 77.12 39.64 76.63 39.02L76.63 42.12L75.03 42.12L75.03 33.7L76.63 33.7L76.63 34.47C77.11 33.86 77.74 33.55 78.51 33.55C79.31 33.55 79.96 33.84 80.45 34.41C80.96 34.97 81.21 35.75 81.21 36.75C81.21 37.74 80.96 38.52 80.45 39.09C79.96 39.67 79.31 39.95 78.51 39.95ZM102.45 39.03C101.86 39.64 101.08 39.95 100.1 39.95Q99.05 39.95 98.3 39.48L98.3 39.48Q98 39.29 97.75 39.03C97.17 38.41 96.88 37.65 96.88 36.75C96.88 35.85 97.17 35.09 97.75 34.47Q98 34.21 98.3 34.03L98.3 34.03Q99.05 33.55 100.1 33.55C101.08 33.55 101.86 33.86 102.45 34.47C103.04 35.09 103.33 35.85 103.33 36.75C103.33 37.65 103.04 38.41 102.45 39.03ZM106.12 39.8L104.52 39.8L104.52 33.7L106.12 33.7L106.12 34.54C106.35 34.25 106.64 34.02 107 33.83C107.35 33.65 107.71 33.55 108.07 33.55L108.07 35.12C107.96 35.09 107.81 35.08 107.63 35.08C107.36 35.08 107.07 35.15 106.77 35.28C106.46 35.42 106.25 35.58 106.12 35.77L106.12 39.8ZM111.93 39.95C110.99 39.95 110.21 39.66 109.6 39.07C108.99 38.48 108.68 37.71 108.68 36.75C108.68 35.85 108.97 35.09 109.56 34.47C110.16 33.86 110.92 33.55 111.83 33.55C112.74 33.55 113.48 33.86 114.04 34.49C114.6 35.1 114.89 35.91 114.89 36.91L114.89 37.26L110.36 37.26C110.41 37.67 110.59 38 110.9 38.27C111.21 38.54 111.61 38.68 112.11 38.68C112.38 38.68 112.67 38.62 112.98 38.51C113.3 38.4 113.55 38.26 113.74 38.07L114.45 39.11C113.83 39.67 112.99 39.95 111.93 39.95ZM113.34 36.18C113.31 35.83 113.17 35.52 112.92 35.24C112.68 34.97 112.31 34.83 111.83 34.83C111.38 34.83 111.02 34.97 110.77 35.24C110.52 35.51 110.37 35.82 110.33 36.18L113.34 36.18ZM70.65 38.53C71.11 38.53 71.48 38.36 71.76 38.03C72.04 37.71 72.19 37.28 72.19 36.75C72.19 36.22 72.04 35.8 71.76 35.47C71.48 35.14 71.11 34.98 70.65 34.98C70.39 34.98 70.13 35.05 69.86 35.18C69.6 35.32 69.41 35.48 69.27 35.67L69.27 37.83C69.41 38.02 69.6 38.19 69.86 38.32C70.13 38.46 70.4 38.53 70.65 38.53ZM78 38.53C78.47 38.53 78.84 38.36 79.12 38.03C79.4 37.71 79.55 37.28 79.55 36.75C79.55 36.22 79.4 35.8 79.12 35.47C78.84 35.14 78.47 34.98 78 34.98C77.75 34.98 77.48 35.05 77.22 35.18C76.96 35.32 76.76 35.48 76.63 35.67L76.63 37.83C76.76 38.02 76.96 38.19 77.22 38.32C77.49 38.46 77.75 38.53 78 38.53ZM98.96 38.02C99.24 38.36 99.62 38.53 100.1 38.53C100.58 38.53 100.96 38.36 101.24 38.02C101.52 37.68 101.67 37.25 101.67 36.75C101.67 36.25 101.52 35.83 101.24 35.5C100.96 35.15 100.58 34.98 100.1 34.98C99.62 34.98 99.24 35.15 98.96 35.5C98.69 35.83 98.55 36.25 98.55 36.75C98.55 37.25 98.69 37.68 98.96 38.02Z" fill="#202020" fill-opacity="1.000000" fill-rule="evenodd"/>
</svg>
