<svg width="32.000000" height="32.000000" viewBox="0 0 32 32" fill="none" xmlns="http://www.w3.org/2000/svg" xmlns:xlink="http://www.w3.org/1999/xlink">
	<desc>
			Created with Pixso.
	</desc>
	<defs>
		<clipPath id="clip1621_41951">
			<rect id=" 1 (traced)" rx="0.000000" width="31.250000" height="31.250000" transform="translate(0.375000 0.375000)" fill="white" fill-opacity="0"/>
		</clipPath>
	</defs>
	<rect id=" 1 (traced)" rx="0.000000" width="31.250000" height="31.250000" transform="translate(0.375000 0.375000)" fill="#FFFFFF" fill-opacity="0"/>
	<g clip-path="url(#clip1621_41951)">
		<path id="Vector" d="M15.4 3.28C13.68 3.46 12.08 4.57 11.32 6.12C10.92 6.91 10.78 7.57 10.78 8.52C10.78 10.87 12.37 12.91 14.67 13.54C15.06 13.64 15.3 13.67 15.99 13.67C16.69 13.67 16.93 13.64 17.31 13.54C19.62 12.91 21.21 10.87 21.21 8.52C21.21 7.83 21.13 7.33 20.96 6.83C20.28 4.85 18.6 3.5 16.52 3.27C16.21 3.25 15.94 3.22 15.91 3.23C15.88 3.23 15.64 3.25 15.4 3.28Z" fill="#202020" fill-opacity="1.000000" fill-rule="nonzero"/>
		<path id="Vector" d="M6.8 9.35C6.1 9.47 5.51 9.77 4.98 10.3C4.35 10.92 4.05 11.61 4 12.5C3.9 14.4 5.42 16 7.33 16C8.15 16 8.95 15.68 9.55 15.13C10.8 13.99 11.02 12.21 10.09 10.8C9.67 10.16 8.92 9.63 8.18 9.43C7.8 9.34 7.15 9.3 6.8 9.35Z" fill="#202020" fill-opacity="1.000000" fill-rule="nonzero"/>
		<path id="Vector" d="M24.24 9.34C22.7 9.59 21.56 10.73 21.36 12.23C21.25 13 21.44 13.81 21.86 14.46C22.79 15.89 24.62 16.4 26.13 15.65C26.84 15.3 27.32 14.82 27.66 14.12C27.93 13.57 28.02 13.11 27.99 12.5C27.94 11.61 27.64 10.92 27.01 10.3C26.39 9.68 25.71 9.38 24.85 9.34C24.59 9.33 24.32 9.33 24.24 9.34Z" fill="#202020" fill-opacity="1.000000" fill-rule="nonzero"/>
		<path id="Vector" d="M12.78 14.76C11.78 14.91 11.02 15.28 10.28 16.02C9.83 16.46 9.69 16.65 9.48 17.09C8.97 18.09 8.99 17.89 8.99 23.32C8.99 28.02 8.99 28.11 9.11 28.31C9.18 28.42 9.32 28.56 9.43 28.63C9.64 28.75 9.71 28.75 16 28.75C22.29 28.75 22.36 28.75 22.56 28.63C22.67 28.56 22.81 28.42 22.88 28.31C23 28.11 23 28.02 23 23.32C23 17.89 23.02 18.09 22.51 17.09C22.15 16.36 21.42 15.61 20.7 15.25C19.74 14.75 19.72 14.74 16.23 14.73C14.54 14.72 12.99 14.74 12.78 14.76Z" fill="#202020" fill-opacity="1.000000" fill-rule="nonzero"/>
		<path id="Vector" d="M5.85 17.06C4.5 17.32 3.38 18.17 2.76 19.41C2.32 20.29 2.32 20.36 2.33 23.8L2.35 26.82L2.57 27.26C2.84 27.82 3.23 28.21 3.77 28.46C4.34 28.74 4.66 28.77 6.89 28.77L8.28 28.77L8.24 28.55C8.21 28.43 8.18 26.04 8.18 23.23L8.18 18.63C8.18 18.3 8.23 17.97 8.32 17.65C8.39 17.39 8.47 17.13 8.48 17.09C8.52 17 8.37 16.99 7.56 17C6.76 17 5.99 17.03 5.85 17.06Z" fill="#202020" fill-opacity="1.000000" fill-rule="nonzero"/>
		<path id="Vector" d="M23.35 16.97C23.37 17.02 23.44 17.28 23.51 17.54C23.6 17.86 23.65 18.19 23.65 18.52L23.65 23.12C23.65 25.92 23.62 28.32 23.59 28.45L23.55 28.66L25.44 28.66C27.67 28.66 27.98 28.63 28.56 28.35C29.1 28.09 29.49 27.71 29.76 27.14L29.98 26.7L30 23.69C30.01 20.24 30.01 20.17 29.57 19.29C29.02 18.2 28.14 17.45 26.93 17.05C26.55 16.93 26.4 16.91 24.91 16.89C23.44 16.87 23.31 16.88 23.35 16.97Z" fill="#202020" fill-opacity="1.000000" fill-rule="nonzero"/>
	</g>
</svg>
