<svg width="171.839844" height="58.250977" viewBox="0 0 171.84 58.251" fill="none" xmlns="http://www.w3.org/2000/svg" xmlns:xlink="http://www.w3.org/1999/xlink">
	<desc>
			Created with Pixso.
	</desc>
	<defs/>
	<path id="Get it on Google Play" d="M73.92 25.4Q72.91 25.4 72.07 25.01Q71.42 24.71 70.88 24.18Q70.48 23.78 70.21 23.3L70.21 23.3Q69.66 22.33 69.66 21.04Q69.66 19.73 70.22 18.76Q70.49 18.29 70.88 17.91Q71.42 17.37 72.07 17.07Q72.91 16.68 73.92 16.68Q74.9 16.68 75.71 17.06Q76.48 17.41 77.09 18.12L76.55 18.51Q76.49 18.44 76.42 18.37L76.42 18.37Q76 17.93 75.4 17.65Q75.27 17.59 75.13 17.54L75.13 17.54Q74.56 17.34 73.92 17.34Q73.08 17.34 72.39 17.67Q71.85 17.92 71.41 18.37Q71.13 18.66 70.93 19Q70.41 19.87 70.41 21.04Q70.41 22.16 70.9 23.01L70.9 23.01Q71.11 23.38 71.41 23.7Q71.86 24.17 72.41 24.43Q73.09 24.75 73.92 24.75C74.44 24.75 74.91 24.65 75.34 24.44C75.77 24.24 76.12 24 76.4 23.72L76.4 21.71L73.22 21.71L73.22 21.06L77.12 21.06L77.12 24Q76.56 24.63 75.86 24.98Q75 25.4 73.92 25.4ZM93.15 18.18C93.02 18.18 92.9 18.13 92.8 18.03C92.7 17.93 92.65 17.81 92.65 17.68C92.65 17.54 92.7 17.43 92.8 17.34C92.9 17.24 93.02 17.19 93.15 17.19Q93.27 17.19 93.37 17.24Q93.44 17.27 93.5 17.34C93.61 17.43 93.66 17.54 93.66 17.68C93.66 17.82 93.61 17.94 93.5 18.04Q93.46 18.09 93.4 18.12L93.4 18.12Q93.29 18.18 93.15 18.18ZM87.41 25.39C86.61 25.39 86.21 24.95 86.21 24.06L86.21 19.72L85.2 19.72L85.2 19.14L86.21 19.14L86.21 17.48L86.88 17.48L86.88 19.14L88.11 19.14L88.11 19.72L86.88 19.72L86.88 23.96C86.88 24.52 87.09 24.8 87.51 24.8C87.79 24.8 88.01 24.7 88.19 24.51L88.44 25.01C88.17 25.26 87.83 25.39 87.41 25.39ZM96.85 25.39C96.05 25.39 95.65 24.95 95.65 24.06L95.65 19.72L94.64 19.72L94.64 19.14L95.65 19.14L95.65 17.48L96.32 17.48L96.32 19.14L97.55 19.14L97.55 19.72L96.32 19.72L96.32 23.96C96.32 24.52 96.53 24.8 96.95 24.8C97.23 24.8 97.45 24.7 97.63 24.51L97.88 25.01C97.61 25.26 97.27 25.39 96.85 25.39ZM81.62 25.39Q80.79 25.39 80.14 25.04Q79.75 24.83 79.42 24.49C78.85 23.9 78.57 23.13 78.57 22.18Q78.57 21.33 78.91 20.64Q79.1 20.25 79.4 19.92Q79.82 19.46 80.34 19.23Q80.87 18.99 81.51 18.99Q82.36 18.99 82.98 19.37Q83.33 19.58 83.62 19.92C84.13 20.54 84.39 21.3 84.39 22.22L84.39 22.4L79.29 22.4C79.32 23.09 79.55 23.66 79.98 24.13C80.41 24.59 80.97 24.82 81.67 24.82Q82.37 24.82 82.93 24.54Q83.33 24.33 83.66 23.98L84.01 24.41C83.38 25.06 82.58 25.39 81.62 25.39ZM104.84 25.39Q104.05 25.39 103.44 25.06Q103.04 24.84 102.72 24.47C102.18 23.85 101.91 23.09 101.91 22.18C101.91 21.28 102.18 20.52 102.72 19.91Q103.04 19.54 103.44 19.32Q104.05 18.99 104.84 18.99C105.72 18.99 106.43 19.3 106.97 19.91C107.51 20.52 107.78 21.28 107.78 22.18C107.78 23.09 107.51 23.85 106.97 24.47C106.43 25.08 105.72 25.39 104.84 25.39ZM114.25 25.24L113.59 25.24L113.59 21.11C113.59 20.56 113.46 20.16 113.21 19.94C112.96 19.7 112.59 19.58 112.11 19.58C111.73 19.58 111.36 19.69 110.99 19.89C110.62 20.09 110.33 20.34 110.13 20.63L110.13 25.24L109.47 25.24L109.47 19.14L110.13 19.14L110.13 20.06C110.37 19.78 110.7 19.53 111.1 19.32C111.51 19.1 111.92 18.99 112.33 18.99C113.61 18.99 114.25 19.65 114.25 20.97L114.25 25.24ZM93.48 25.24L92.82 25.24L92.82 19.14L93.48 19.14L93.48 25.24ZM83.72 21.88C83.71 21.29 83.51 20.76 83.12 20.28Q82.95 20.05 82.72 19.9Q82.22 19.56 81.5 19.56Q80.91 19.56 80.46 19.81Q80.15 19.98 79.91 20.28C79.52 20.75 79.31 21.28 79.29 21.88L83.72 21.88ZM104.84 24.8Q105.45 24.8 105.91 24.53Q106.23 24.35 106.47 24.04C106.87 23.53 107.07 22.91 107.07 22.18C107.07 21.47 106.87 20.86 106.47 20.35Q106.22 20.03 105.89 19.84Q105.44 19.58 104.84 19.58C104.16 19.58 103.61 19.84 103.21 20.35C102.82 20.86 102.62 21.47 102.62 22.18C102.62 22.9 102.82 23.51 103.21 24.03C103.61 24.54 104.16 24.8 104.84 24.8ZM73.83 39.97Q72.67 39.97 71.72 39.5Q71.14 39.22 70.64 38.75C69.78 37.95 69.35 36.89 69.35 35.6C69.35 34.29 69.78 33.24 70.64 32.44Q71.13 32 71.69 31.72Q72.65 31.24 73.83 31.24C75.37 31.24 76.53 31.87 77.32 33.12L75.83 33.93C75.63 33.61 75.35 33.35 75 33.15C74.65 32.94 74.26 32.83 73.83 32.83C73.07 32.83 72.44 33.1 71.94 33.62Q71.71 33.86 71.55 34.15L71.55 34.15Q71.2 34.78 71.2 35.6C71.2 36.4 71.45 37.06 71.94 37.58Q72.24 37.89 72.6 38.08Q73.15 38.36 73.83 38.36C74.19 38.36 74.53 38.3 74.86 38.17C75.18 38.05 75.44 37.9 75.63 37.72L75.63 36.71L73.41 36.71L73.41 35.14L77.42 35.14L77.42 38.37C76.47 39.44 75.27 39.97 73.83 39.97ZM102.28 39.8L100.68 39.8L100.68 31.38L102.28 31.38L102.28 39.8ZM115.91 39.8L114.12 39.8L114.12 31.38L118.05 31.38Q119.13 31.38 119.82 31.9Q119.98 32.02 120.12 32.17Q120.41 32.45 120.59 32.8Q120.88 33.37 120.88 34.1Q120.88 34.78 120.61 35.33Q120.43 35.71 120.12 36.03C119.62 36.55 118.93 36.81 118.05 36.81L115.91 36.81L115.91 39.8ZM123.56 39.8L121.95 39.8L121.95 31.38L123.56 31.38L123.56 39.8ZM117.82 35.23C118.18 35.23 118.47 35.13 118.7 34.93C118.93 34.72 119.05 34.44 119.05 34.1C119.05 33.75 118.93 33.48 118.7 33.28C118.47 33.07 118.18 32.96 117.82 32.96L115.91 32.96L115.91 35.23L117.82 35.23ZM83.98 39.03C83.39 39.65 82.61 39.95 81.63 39.95C80.66 39.95 79.87 39.65 79.28 39.03C78.7 38.41 78.41 37.65 78.41 36.75C78.41 35.85 78.7 35.09 79.28 34.48C79.87 33.86 80.66 33.55 81.63 33.55C82.61 33.55 83.39 33.86 83.98 34.48C84.57 35.09 84.86 35.85 84.86 36.75C84.86 37.65 84.57 38.41 83.98 39.03ZM91.23 39.03C90.64 39.65 89.85 39.95 88.88 39.95C87.9 39.95 87.12 39.65 86.53 39.03Q86.19 38.66 85.98 38.23Q85.66 37.56 85.66 36.75C85.66 35.85 85.95 35.09 86.53 34.48C87.12 33.86 87.9 33.55 88.88 33.55C89.85 33.55 90.64 33.86 91.23 34.48C91.82 35.09 92.11 35.85 92.11 36.75C92.11 37.65 91.82 38.41 91.23 39.03ZM95.8 42.28C94.75 42.28 93.87 41.97 93.17 41.37L93.89 40.21Q94.05 40.38 94.24 40.52Q94.86 40.96 95.8 40.96C96.25 40.96 96.64 40.84 96.97 40.6C97.31 40.36 97.48 39.97 97.48 39.42L97.48 38.8Q97.01 39.39 96.42 39.62Q96.03 39.76 95.59 39.76C94.8 39.76 94.16 39.49 93.65 38.96C93.16 38.41 92.91 37.64 92.91 36.66C92.91 35.68 93.16 34.92 93.65 34.37Q93.96 34.04 94.34 33.84Q94.89 33.55 95.59 33.55C96.35 33.55 96.98 33.87 97.48 34.49L97.48 33.71L99.09 33.71L99.09 39.38C99.09 39.94 98.99 40.42 98.79 40.81C98.59 41.21 98.33 41.5 97.99 41.71C97.66 41.91 97.31 42.05 96.95 42.14C96.59 42.23 96.21 42.28 95.8 42.28ZM106.74 39.95C105.8 39.95 105.02 39.66 104.4 39.07C103.79 38.48 103.48 37.71 103.48 36.75C103.48 35.85 103.78 35.09 104.37 34.48C104.96 33.86 105.72 33.55 106.64 33.55C107.55 33.55 108.28 33.87 108.85 34.49C109.41 35.1 109.69 35.91 109.69 36.91L109.69 37.26L105.16 37.26C105.21 37.67 105.39 38 105.7 38.27C106.02 38.54 106.42 38.68 106.92 38.68C107.18 38.68 107.48 38.62 107.79 38.51C108.11 38.4 108.36 38.26 108.54 38.07L109.25 39.11C108.64 39.67 107.8 39.95 106.74 39.95ZM130.41 39.8L128.81 39.8L128.81 39.17C128.37 39.69 127.73 39.95 126.88 39.95C126.33 39.95 125.84 39.78 125.4 39.42C124.97 39.06 124.76 38.56 124.76 37.93C124.76 37.28 124.97 36.79 125.39 36.46C125.82 36.13 126.31 35.96 126.88 35.96C127.74 35.96 128.39 36.21 128.81 36.71L128.81 35.89C128.81 35.58 128.68 35.33 128.44 35.14C128.2 34.96 127.87 34.87 127.47 34.87C126.8 34.87 126.21 35.11 125.69 35.59L125.08 34.51C125.81 33.87 126.69 33.55 127.75 33.55C128.53 33.55 129.17 33.74 129.67 34.1C130.16 34.46 130.41 35.05 130.41 35.86L130.41 39.8ZM131.78 42.19L132.02 40.75C132.18 40.82 132.35 40.85 132.53 40.85C132.96 40.85 133.24 40.7 133.38 40.41L133.6 39.89L131.13 33.71L132.85 33.71L134.43 37.95L136.03 33.71L137.75 33.71L134.89 40.8C134.68 41.34 134.39 41.71 134.01 41.92C133.63 42.14 133.15 42.26 132.58 42.28C132.29 42.28 132.02 42.25 131.78 42.19ZM108.14 36.18C108.11 35.83 107.98 35.52 107.72 35.25C107.48 34.97 107.12 34.83 106.64 34.83C106.18 34.83 105.83 34.97 105.58 35.25C105.33 35.51 105.18 35.83 105.14 36.18L108.14 36.18ZM80.5 38.02C80.77 38.36 81.15 38.53 81.63 38.53C82.11 38.53 82.49 38.36 82.77 38.02C83.05 37.68 83.2 37.25 83.2 36.75C83.2 36.25 83.05 35.83 82.77 35.5C82.49 35.15 82.11 34.98 81.63 34.98C81.15 34.98 80.77 35.15 80.5 35.5C80.22 35.83 80.08 36.25 80.08 36.75C80.08 37.25 80.22 37.68 80.5 38.02ZM87.74 38.02C88.02 38.36 88.4 38.53 88.88 38.53C89.36 38.53 89.74 38.36 90.01 38.02C90.3 37.68 90.44 37.25 90.44 36.75C90.44 36.25 90.3 35.83 90.01 35.5C89.74 35.15 89.36 34.98 88.88 34.98C88.4 34.98 88.02 35.15 87.74 35.5C87.47 35.83 87.33 36.25 87.33 36.75C87.33 37.25 87.47 37.68 87.74 38.02ZM96.1 38.34C96.36 38.34 96.62 38.27 96.88 38.14C97.14 38 97.34 37.84 97.48 37.64L97.48 35.67C97.34 35.47 97.14 35.31 96.88 35.18C96.63 35.05 96.37 34.98 96.1 34.98C95.64 34.98 95.26 35.13 94.98 35.43C94.7 35.74 94.56 36.15 94.56 36.66C94.56 37.17 94.7 37.58 94.98 37.88C95.26 38.19 95.64 38.34 96.1 38.34ZM127.52 38.87Q128.28 38.87 128.67 38.49Q128.75 38.42 128.81 38.34L128.81 37.58C128.55 37.23 128.12 37.05 127.52 37.05C127.19 37.05 126.92 37.13 126.7 37.3C126.48 37.46 126.37 37.69 126.37 37.97C126.37 38.25 126.48 38.47 126.7 38.63Q126.71 38.64 126.73 38.65L126.73 38.65Q127.05 38.87 127.52 38.87Z" fill="#202020" fill-opacity="1.000000" fill-rule="evenodd"/>
	<path id="Vector" d="M21.35 29.56C21.35 25.63 21.35 21.71 21.35 17.78C21.35 14.09 22.63 13.33 25.81 15.14C32.88 19.16 39.96 23.18 47.04 27.2C47.15 27.26 47.27 27.33 47.38 27.4C49.61 28.72 49.64 30.44 47.42 31.75C45.55 32.86 43.67 33.96 41.77 35.04C36.35 38.11 30.92 41.16 25.49 44.21C25.03 44.47 24.57 44.72 24.08 44.89C22.89 45.28 21.88 44.74 21.56 43.53C21.42 42.99 21.36 42.42 21.36 41.86C21.35 37.76 21.35 33.66 21.35 29.56Z" fill="#ECECEC" fill-opacity="1.000000" fill-rule="evenodd"/>
	<path id="Vector" d="M22.37 15.97C22.37 25.1 22.37 34.08 22.37 42.89C26.87 38.42 31.39 33.94 35.87 29.49C31.48 25.09 27.01 20.62 22.37 15.97ZM23.59 14.92C23.57 14.98 23.56 15.04 23.54 15.1C28.02 19.58 32.51 24.06 36.87 28.4C38.06 27.22 39.36 25.95 40.71 24.61C35.02 21.4 29.31 18.16 23.59 14.92ZM40.71 34.56C39.34 33.19 38.06 31.91 36.92 30.78C32.5 35.19 28.03 39.64 23.56 44.1C23.58 44.15 23.59 44.2 23.61 44.25C29.32 41.01 35.04 37.77 40.71 34.56ZM37.56 29.33C39.14 30.9 40.58 32.33 42.05 33.79C43.7 32.85 45.5 31.87 47.26 30.81C48.43 30.1 48.5 29.16 47.39 28.47C45.73 27.43 44.01 26.49 42.29 25.55C42.07 25.43 41.59 25.49 41.41 25.65C40.06 26.88 38.76 28.17 37.56 29.33Z" fill="#202020" fill-opacity="1.000000" fill-rule="nonzero"/>
</svg>
