<svg width="99.000000" height="52.000000" viewBox="0 0 99 52" fill="none" xmlns="http://www.w3.org/2000/svg" xmlns:xlink="http://www.w3.org/1999/xlink">
	<desc>
			Created with Pixso.
	</desc>
	<defs>
		<clipPath id="clip8101_3905">
			<rect id="xpage" rx="0.000000" width="98.000000" height="23.315790" transform="translate(0.500000 17.500000)" fill="white" fill-opacity="0"/>
		</clipPath>
	</defs>
	<rect id="xpage" rx="0.000000" width="98.000000" height="23.315790" transform="translate(0.500000 17.500000)" fill="#FFFFFF" fill-opacity="0"/>
	<g clip-path="url(#clip8101_3905)">
		<mask id="mask8101_3913" mask-type="alpha" maskUnits="userSpaceOnUse" x="0.000000" y="17.000000" width="99.000000" height="24.959961">
			<path id="Vector" d="M0 17L99 17L99 41.96L0 41.96L0 17Z" fill="#000000" fill-opacity="1.000000" fill-rule="evenodd"/>
		</mask>
		<g mask="url(#mask8101_3913)">
			<path id="Vector" d="M19.92 17.51L23.3 17.51L23.3 20.03C23.87 19.06 24.7 18.31 25.79 17.78C26.88 17.25 28.12 16.98 29.51 16.98C31.2 16.98 32.69 17.37 34 18.16C35.31 18.95 36.31 20.06 37.02 21.48C37.74 22.91 38.1 24.54 38.1 26.39C38.1 28.24 37.74 29.92 37.02 31.33C36.31 32.76 35.29 33.86 34 34.65C32.71 35.44 31.2 35.83 29.51 35.83C28.22 35.83 27.08 35.59 26.08 35.14C25.08 34.67 24.29 34 23.72 33.14L23.72 41.92L19.94 41.92L19.94 17.51L19.92 17.51ZM25.11 30.76C26.08 31.88 27.28 32.44 28.88 32.44C30.47 32.44 31.7 31.88 32.69 30.76C33.68 29.63 34.16 28.24 34.16 26.42C34.16 24.6 33.68 23.24 32.69 22.12C31.7 21 30.47 20.44 28.88 20.44C27.28 20.44 26.08 21 25.11 22.12C24.13 23.24 23.65 24.62 23.65 26.42C23.65 28.23 24.13 29.63 25.11 30.76Z" fill="#000000" fill-opacity="1.000000" fill-rule="nonzero"/>
			<path id="Vector" d="M44.42 34.68C43.12 33.89 42.11 32.79 41.4 31.36C40.69 29.94 40.32 28.29 40.32 26.42C40.32 24.56 40.69 22.94 41.4 21.51C42.11 20.09 43.13 18.98 44.42 18.19C45.72 17.4 47.22 17.01 48.91 17.01C50.29 17.01 51.52 17.27 52.6 17.78C53.68 18.3 54.52 19.03 55.11 19.96L55.11 17.51L58.46 17.51L58.46 35.33L55.11 35.33L55.11 32.85C54.52 33.79 53.68 34.51 52.6 35.06C51.52 35.59 50.29 35.86 48.91 35.86C47.22 35.86 45.73 35.47 44.42 34.68ZM45.7 30.79C46.67 31.89 47.95 32.44 49.52 32.44C51.08 32.44 52.34 31.89 53.3 30.79C54.26 29.68 54.73 28.22 54.73 26.42C54.73 24.62 54.26 23.19 53.3 22.09C52.34 20.98 51.08 20.43 49.52 20.43C47.95 20.43 46.67 21 45.7 22.09C44.73 23.19 44.23 24.63 44.23 26.42C44.23 28.21 44.71 29.68 45.7 30.79Z" fill="#000000" fill-opacity="1.000000" fill-rule="nonzero"/>
			<path id="Vector" d="M63.03 38.62L71.47 38.62C72.68 38.62 73.61 38.29 74.25 37.64C74.89 36.98 75.19 36.03 75.19 34.8L75.19 32.27C74.55 33.1 73.78 33.74 72.85 34.15C71.92 34.56 70.91 34.76 69.78 34.76C68.12 34.76 66.63 34.39 65.34 33.65C64.03 32.91 63.03 31.86 62.32 30.5C61.6 29.13 61.24 27.59 61.24 25.83C61.24 24.07 61.6 22.57 62.32 21.24C63.03 19.91 64.05 18.86 65.34 18.13C66.65 17.39 68.12 17.03 69.78 17.03C70.95 17.03 72.03 17.24 73.02 17.68C74 18.12 74.84 18.75 75.51 19.62L75.51 17.51L78.85 17.51L78.85 34.5C78.85 37.01 78.22 38.89 76.95 40.12C75.69 41.35 73.9 41.96 71.6 41.96L63.02 41.96L63.02 38.62L63.03 38.62ZM66.54 29.8C67.47 30.82 68.67 31.33 70.15 31.33C71.62 31.33 72.83 30.82 73.75 29.8C74.67 28.79 75.13 27.45 75.13 25.83C75.13 24.21 74.67 22.92 73.75 21.92C72.82 20.92 71.62 20.42 70.15 20.42C68.67 20.42 67.45 20.92 66.54 21.92C65.61 22.92 65.16 24.22 65.16 25.83C65.16 27.44 65.61 28.79 66.54 29.8Z" fill="#000000" fill-opacity="1.000000" fill-rule="nonzero"/>
			<path id="Vector" d="M84.11 32.95C82.49 31.36 81.68 29.15 81.68 26.33C81.68 24.45 82.05 22.81 82.78 21.41C83.51 20 84.57 18.9 85.88 18.15C87.18 17.37 88.72 17 90.41 17C93.05 17 95.15 17.8 96.68 19.39C98.22 20.98 99 23.25 99 26C99 26.39 98.97 26.97 98.89 27.69L85.47 27.69C85.57 29.19 86.12 30.16 87.14 30.98C88.16 31.8 89.63 32.13 91.56 32.13L97.89 32.13L97.89 35.35L91.29 35.35C88.1 35.35 85.74 34.54 84.13 32.95L84.11 32.95ZM95.23 24.79L95.23 24.6C95.23 23.24 94.8 22.13 93.95 21.3C93.1 20.47 91.93 20.04 90.42 20.04C88.92 20.04 87.81 20.48 86.91 21.34C86.01 22.22 85.54 23.36 85.47 24.77L95.23 24.77L95.23 24.79Z" fill="#000000" fill-opacity="1.000000" fill-rule="nonzero"/>
			<path id="Vector" d="M0 17.51L4.46 17.51L11.17 26.42L17.87 35.35L13.4 35.35L8.93 29.4L4.46 35.35L0 35.35L6.7 26.42L0 17.51Z" fill="#000000" fill-opacity="1.000000" fill-rule="nonzero"/>
			<path id="Vector" d="M10.64 21.19L13.4 17.51L17.87 17.51L13.49 23.33C12.78 24.29 11.35 24.29 10.64 23.33C10.16 22.69 10.16 21.83 10.64 21.19Z" fill="#000000" fill-opacity="1.000000" fill-rule="nonzero"/>
		</g>
	</g>
</svg>
