<svg width="352.000000" height="401.000000" viewBox="0 0 352 401" fill="none" xmlns="http://www.w3.org/2000/svg" xmlns:xlink="http://www.w3.org/1999/xlink">
	<desc>
			Created with Pixso.
	</desc>
	<defs>
		<clipPath id="clip17_936">
			<rect id="Frame 3354741" rx="29.044304" width="350.510559" height="399.510559" transform="translate(0.744726 0.744726)" fill="white" fill-opacity="0"/>
		</clipPath>
	</defs>
	<rect id="Frame 3354741" rx="29.044304" width="350.510559" height="399.510559" transform="translate(0.744726 0.744726)" fill="#FFFFFF" fill-opacity="1.000000"/>
	<g clip-path="url(#clip17_936)">
		<path id="image 4 (Traced)" d="M86.33 69.08L86.33 94.16L111.41 94.16L136.5 94.16L136.5 69.08L136.5 44L111.41 44L86.33 44L86.33 69.08ZM143.66 54.75L143.66 65.5L147.25 65.5L150.83 65.5L150.83 61.91L150.83 58.33L154.41 58.33L158 58.33L158 65.5L158 72.66L150.83 72.66L143.66 72.66L143.66 76.25L143.66 79.83L147.25 79.83L150.83 79.83L150.83 83.41L150.83 87L147.25 87L143.66 87L143.66 90.58L143.66 94.16L147.25 94.16L150.83 94.16L150.83 90.58L150.83 87L154.41 87L158 87L158 90.58L158 94.16L161.58 94.16L165.16 94.16L165.16 90.58L165.16 87L168.75 87L172.33 87L172.33 90.58L172.33 94.16L175.91 94.16L179.5 94.16L179.5 97.75L179.5 101.33L175.91 101.33L172.33 101.33L172.33 115.66L172.33 130L165.16 130L158 130L158 122.83L158 115.66L161.58 115.66L165.16 115.66L165.16 112.08L165.16 108.5L161.58 108.5L158 108.5L158 104.91L158 101.33L132.91 101.33L107.83 101.33L107.83 104.91L107.83 108.5L100.66 108.5L93.49 108.5L93.49 104.91L93.49 101.33L89.91 101.33L86.33 101.33L86.33 108.5L86.33 115.66L89.91 115.66L93.49 115.66L93.49 119.25L93.49 122.83L89.91 122.83L86.33 122.83L86.33 144.33L86.33 165.83L89.91 165.83L93.49 165.83L93.49 158.66L93.49 151.5L97.08 151.5L100.66 151.5L100.66 158.66L100.66 165.83L104.24 165.83L107.83 165.83L107.83 158.66L107.83 151.5L111.41 151.5L114.99 151.5L114.99 155.08L114.99 158.66L118.58 158.66L122.16 158.66L122.16 162.25L122.16 165.83L129.33 165.83L136.5 165.83L136.5 162.25L136.5 158.66L140.08 158.66L143.66 158.66L143.66 180.16L143.66 201.66L150.83 201.66L158 201.66L158 208.83L158 216L150.83 216L143.66 216L143.66 219.58L143.66 223.16L150.83 223.16L158 223.16L158 219.58L158 216L161.58 216L165.16 216L165.16 212.41L165.16 208.83L168.75 208.83L172.33 208.83L172.33 201.66L172.33 194.5L175.91 194.5L179.5 194.5L179.5 190.91L179.5 187.33L183.08 187.33L186.66 187.33L186.66 194.5L186.66 201.66L183.08 201.66L179.5 201.66L179.5 205.25L179.5 208.83L183.08 208.83L186.66 208.83L186.66 212.41L186.66 216L190.25 216L193.83 216L193.83 212.41L193.83 208.83L204.58 208.83L215.33 208.83L215.33 205.25L215.33 201.66L218.91 201.66L222.5 201.66L222.5 198.08L222.5 194.5L229.66 194.5L236.83 194.5L236.83 176.58L236.83 158.66L240.41 158.66L244 158.66L244 165.83L244 173L251.16 173L258.33 173L258.33 176.58L258.33 180.16L254.75 180.16L251.16 180.16L251.16 183.75L251.16 187.33L258.33 187.33L265.5 187.33L265.5 180.16L265.5 173L261.91 173L258.33 173L258.33 165.83L258.33 158.66L261.91 158.66L265.5 158.66L265.5 151.5L265.5 144.33L261.91 144.33L258.33 144.33L258.33 140.75L258.33 137.16L261.91 137.16L265.5 137.16L265.5 126.41L265.5 115.66L261.91 115.66L258.33 115.66L258.33 112.08L258.33 108.5L261.91 108.5L265.5 108.5L265.5 104.91L265.5 101.33L254.75 101.33L244 101.33L244 104.91L244 108.5L240.41 108.5L236.83 108.5L236.83 104.91L236.83 101.33L233.25 101.33L229.66 101.33L229.66 104.91L229.66 108.5L226.08 108.5L222.5 108.5L222.5 112.08L222.5 115.66L218.91 115.66L215.33 115.66L215.33 108.5L215.33 101.33L211.75 101.33L208.16 101.33L208.16 108.5L208.16 115.66L204.58 115.66L201 115.66L201 108.5L201 101.33L193.83 101.33L186.66 101.33L186.66 97.75L186.66 94.16L190.25 94.16L193.83 94.16L193.83 90.58L193.83 87L190.25 87L186.66 87L186.66 83.41L186.66 79.83L183.08 79.83L179.5 79.83L179.5 76.25L179.5 72.66L183.08 72.66L186.66 72.66L186.66 65.5L186.66 58.33L190.25 58.33L193.83 58.33L193.83 61.91L193.83 65.5L197.41 65.5L201 65.5L201 79.83L201 94.16L204.58 94.16L208.16 94.16L208.16 79.83L208.16 65.5L204.58 65.5L201 65.5L201 61.91L201 58.33L204.58 58.33L208.16 58.33L208.16 54.75L208.16 51.16L204.58 51.16L201 51.16L201 54.75L201 58.33L197.41 58.33L193.83 58.33L193.83 54.75L193.83 51.16L190.25 51.16L186.66 51.16L186.66 47.58L186.66 44L183.08 44L179.5 44L179.5 47.58L179.5 51.16L183.08 51.16L186.66 51.16L186.66 54.75L186.66 58.33L183.08 58.33L179.5 58.33L179.5 65.5L179.5 72.66L172.33 72.66L165.16 72.66L165.16 69.08L165.16 65.5L168.75 65.5L172.33 65.5L172.33 61.91L172.33 58.33L168.75 58.33L165.16 58.33L165.16 54.75L165.16 51.16L168.75 51.16L172.33 51.16L172.33 47.58L172.33 44L168.75 44L165.16 44L165.16 47.58L165.16 51.16L158 51.16L150.83 51.16L150.83 47.58L150.83 44L147.25 44L143.66 44L143.66 54.75ZM215.33 69.08L215.33 94.16L240.41 94.16L265.5 94.16L265.5 69.08L265.5 44L240.41 44L215.33 44L215.33 69.08ZM128.97 69.08L128.97 86.64L111.41 86.64L93.85 86.64L93.85 69.08L93.85 51.52L111.41 51.52L128.97 51.52L128.97 69.08ZM257.97 69.08L257.97 86.64L240.41 86.64L222.85 86.64L222.85 69.08L222.85 51.52L240.41 51.52L257.97 51.52L257.97 69.08ZM100.66 69.08L100.66 79.83L111.41 79.83L122.16 79.83L122.16 69.08L122.16 58.33L111.41 58.33L100.66 58.33L100.66 69.08ZM229.66 69.08L229.66 79.83L240.41 79.83L251.16 79.83L251.16 69.08L251.16 58.33L240.41 58.33L229.66 58.33L229.66 69.08ZM165.16 76.25L165.16 79.83L161.58 79.83L158 79.83L158 76.25L158 72.66L161.58 72.66L165.16 72.66L165.16 76.25ZM179.5 83.41L179.5 87L183.08 87L186.66 87L186.66 90.58L186.66 94.16L183.08 94.16L179.5 94.16L179.5 90.58L179.5 87L175.91 87L172.33 87L172.33 83.41L172.33 79.83L175.91 79.83L179.5 79.83L179.5 83.41ZM186.66 104.91L186.66 108.5L183.08 108.5L179.5 108.5L179.5 104.91L179.5 101.33L183.08 101.33L186.66 101.33L186.66 104.91ZM114.99 115.66L114.99 122.83L107.83 122.83L100.66 122.83L100.66 119.25L100.66 115.66L104.24 115.66L107.83 115.66L107.83 112.08L107.83 108.5L111.41 108.5L114.99 108.5L114.99 115.66ZM143.66 115.66L143.66 122.83L140.08 122.83L136.5 122.83L136.5 126.41L136.5 130L140.08 130L143.66 130L143.66 133.58L143.66 137.16L140.08 137.16L136.5 137.16L136.5 140.75L136.5 144.33L132.91 144.33L129.33 144.33L129.33 147.91L129.33 151.5L132.91 151.5L136.5 151.5L136.5 155.08L136.5 158.66L132.91 158.66L129.33 158.66L129.33 155.08L129.33 151.5L125.74 151.5L122.16 151.5L122.16 147.91L122.16 144.33L107.83 144.33L93.49 144.33L93.49 140.75L93.49 137.16L97.08 137.16L100.66 137.16L100.66 133.58L100.66 130L107.83 130L114.99 130L114.99 133.58L114.99 137.16L118.58 137.16L122.16 137.16L122.16 130L122.16 122.83L129.33 122.83L136.5 122.83L136.5 119.25L136.5 115.66L132.91 115.66L129.33 115.66L129.33 112.08L129.33 108.5L136.5 108.5L143.66 108.5L143.66 115.66ZM215.33 119.25L215.33 122.83L218.91 122.83L222.5 122.83L222.5 126.41L222.5 130L226.08 130L229.66 130L229.66 122.83L229.66 115.66L233.25 115.66L236.83 115.66L236.83 122.83L236.83 130L247.58 130L258.33 130L258.33 133.58L258.33 137.16L254.75 137.16L251.16 137.16L251.16 140.75L251.16 144.33L244 144.33L236.83 144.33L236.83 140.75L236.83 137.16L233.25 137.16L229.66 137.16L229.66 144.33L229.66 151.5L233.25 151.5L236.83 151.5L236.83 155.08L236.83 158.66L233.25 158.66L229.66 158.66L229.66 155.08L229.66 151.5L226.08 151.5L222.5 151.5L222.5 155.08L222.5 158.66L218.91 158.66L215.33 158.66L215.33 155.08L215.33 151.5L218.91 151.5L222.5 151.5L222.5 147.91L222.5 144.33L218.91 144.33L215.33 144.33L215.33 140.75L215.33 137.16L208.16 137.16L201 137.16L201 133.58L201 130L204.58 130L208.16 130L208.16 122.83L208.16 115.66L211.75 115.66L215.33 115.66L215.33 119.25ZM258.33 119.25L258.33 122.83L251.16 122.83L244 122.83L244 119.25L244 115.66L251.16 115.66L258.33 115.66L258.33 119.25ZM186.66 126.41L186.66 130L190.25 130L193.83 130L193.83 140.75L193.83 151.5L197.41 151.5L201 151.5L201 147.91L201 144.33L204.58 144.33L208.16 144.33L208.16 147.91L208.16 151.5L204.58 151.5L201 151.5L201 155.08L201 158.66L186.66 158.66L172.33 158.66L172.33 162.25L172.33 165.83L165.16 165.83L158 165.83L158 151.5L158 137.16L168.75 137.16L179.5 137.16L179.5 130L179.5 122.83L183.08 122.83L186.66 122.83L186.66 126.41ZM129.33 133.58L129.33 137.16L125.74 137.16L122.16 137.16L122.16 140.75L122.16 144.33L125.74 144.33L129.33 144.33L129.33 140.75L129.33 137.16L132.91 137.16L136.5 137.16L136.5 133.58L136.5 130L132.91 130L129.33 130L129.33 133.58ZM215.33 133.58L215.33 137.16L218.91 137.16L222.5 137.16L222.5 133.58L222.5 130L218.91 130L215.33 130L215.33 133.58ZM150.83 151.5L150.83 158.66L147.25 158.66L143.66 158.66L143.66 151.5L143.66 144.33L147.25 144.33L150.83 144.33L150.83 151.5ZM165.16 151.5L165.16 158.66L168.75 158.66L172.33 158.66L172.33 155.08L172.33 151.5L179.5 151.5L186.66 151.5L186.66 147.91L186.66 144.33L175.91 144.33L165.16 144.33L165.16 151.5ZM258.33 155.08L258.33 158.66L254.75 158.66L251.16 158.66L251.16 155.08L251.16 151.5L254.75 151.5L258.33 151.5L258.33 155.08ZM201 173L201 180.16L190.25 180.16L179.5 180.16L179.5 183.75L179.5 187.33L172.33 187.33L165.16 187.33L165.16 190.91L165.16 194.5L161.58 194.5L158 194.5L158 190.91L158 187.33L161.58 187.33L165.16 187.33L165.16 183.75L165.16 180.16L158 180.16L150.83 180.16L150.83 176.58L150.83 173L158 173L165.16 173L165.16 176.58L165.16 180.16L168.75 180.16L172.33 180.16L172.33 176.58L172.33 173L179.5 173L186.66 173L186.66 169.41L186.66 165.83L193.83 165.83L201 165.83L201 173ZM229.66 176.58L229.66 187.33L218.91 187.33L208.16 187.33L208.16 176.58L208.16 165.83L218.91 165.83L229.66 165.83L229.66 176.58ZM86.33 198.08L86.33 223.16L111.41 223.16L136.5 223.16L136.5 198.08L136.5 173L111.41 173L86.33 173L86.33 198.08ZM215.33 176.58L215.33 180.16L218.91 180.16L222.5 180.16L222.5 176.58L222.5 173L218.91 173L215.33 173L215.33 176.58ZM128.97 198.08L128.97 215.64L111.41 215.64L93.85 215.64L93.85 198.08L93.85 180.52L111.41 180.52L128.97 180.52L128.97 198.08ZM100.66 198.08L100.66 208.83L111.41 208.83L122.16 208.83L122.16 198.08L122.16 187.33L111.41 187.33L100.66 187.33L100.66 198.08ZM215.33 198.08L215.33 201.66L208.16 201.66L201 201.66L201 198.08L201 194.5L208.16 194.5L215.33 194.5L215.33 198.08ZM251.16 198.08L251.16 201.66L240.41 201.66L229.66 201.66L229.66 205.25L229.66 208.83L226.08 208.83L222.5 208.83L222.5 212.41L222.5 216L229.66 216L236.83 216L236.83 219.58L236.83 223.16L240.41 223.16L244 223.16L244 219.58L244 216L251.16 216L258.33 216L258.33 219.58L258.33 223.16L261.91 223.16L265.5 223.16L265.5 208.83L265.5 194.5L258.33 194.5L251.16 194.5L251.16 198.08ZM244 212.41L244 216L240.41 216L236.83 216L236.83 212.41L236.83 208.83L240.41 208.83L244 208.83L244 212.41ZM172.33 219.58L172.33 223.16L175.91 223.16L179.5 223.16L179.5 219.58L179.5 216L175.91 216L172.33 216L172.33 219.58ZM201 219.58L201 223.16L208.16 223.16L215.33 223.16L215.33 219.58L215.33 216L208.16 216L201 216L201 219.58Z" fill="#202020" fill-opacity="1.000000" fill-rule="evenodd"/>
		<path id="iOS / Android" d="M158.05 279.65L161.8 265.72L160.28 265.72L156.53 279.65L158.05 279.65ZM126.97 267.74Q127.17 267.82 127.41 267.82Q127.66 267.82 127.86 267.73Q128.03 267.66 128.17 267.53C128.38 267.33 128.48 267.09 128.48 266.81C128.48 266.53 128.38 266.29 128.17 266.1C127.96 265.9 127.71 265.79 127.41 265.79Q127.18 265.79 126.98 265.88Q126.8 265.95 126.65 266.1C126.44 266.29 126.34 266.53 126.34 266.81C126.34 267.09 126.44 267.33 126.65 267.53Q126.8 267.66 126.97 267.74ZM213.82 267.53C214.03 267.73 214.29 267.82 214.58 267.82C214.88 267.82 215.13 267.73 215.34 267.53C215.55 267.33 215.66 267.09 215.66 266.81C215.66 266.53 215.55 266.29 215.34 266.1C215.13 265.9 214.88 265.79 214.58 265.79C214.29 265.79 214.03 265.9 213.82 266.1C213.61 266.29 213.51 266.53 213.51 266.81C213.51 267.09 213.61 267.33 213.82 267.53ZM140.1 275.28Q140.78 273.94 140.78 272.08Q140.78 270.22 140.1 268.88Q139.58 267.86 138.76 267.2Q138.51 266.99 138.23 266.82Q137.97 266.66 137.69 266.54Q136.72 266.1 135.54 266.1Q134.36 266.1 133.37 266.54Q133.1 266.67 132.84 266.82Q132.58 266.98 132.34 267.18Q131.51 267.84 130.98 268.88Q130.3 270.22 130.3 272.08Q130.3 273.94 130.98 275.28Q131.5 276.31 132.33 276.98Q132.57 277.18 132.84 277.34Q133.09 277.49 133.35 277.61Q134.34 278.06 135.54 278.06Q136.73 278.06 137.72 277.61Q137.98 277.49 138.23 277.34Q138.53 277.16 138.79 276.94Q139.59 276.29 140.1 275.28ZM148.57 268.07C149 268.36 149.25 268.78 149.32 269.32L151.01 269.32C150.99 268.69 150.81 268.14 150.46 267.66C150.12 267.17 149.64 266.79 149.03 266.52C148.43 266.24 147.73 266.1 146.95 266.1Q145.78 266.1 144.84 266.52C144.22 266.8 143.73 267.19 143.37 267.69Q143.21 267.91 143.1 268.15Q142.82 268.73 142.82 269.44Q142.82 270.24 143.17 270.83Q143.35 271.14 143.63 271.4C144.18 271.89 144.92 272.26 145.85 272.52L147.22 272.89Q147.85 273.06 148.34 273.27C148.68 273.42 148.94 273.6 149.13 273.82C149.33 274.04 149.43 274.32 149.43 274.66C149.43 275.04 149.32 275.37 149.09 275.66C148.87 275.94 148.56 276.16 148.17 276.32C147.79 276.47 147.35 276.55 146.85 276.55C146.4 276.55 145.98 276.48 145.61 276.35C145.23 276.22 144.92 276.01 144.68 275.73C144.44 275.45 144.3 275.1 144.27 274.68L142.51 274.68C142.55 275.38 142.75 275.99 143.11 276.5C143.47 277.01 143.96 277.4 144.6 277.68C145.24 277.95 145.99 278.09 146.86 278.09Q148.22 278.09 149.19 277.65C149.83 277.35 150.32 276.95 150.66 276.44C151 275.93 151.17 275.34 151.17 274.68Q151.17 273.9 150.86 273.34C150.65 272.96 150.38 272.65 150.05 272.39C149.72 272.14 149.35 271.93 148.96 271.78Q148.38 271.54 147.82 271.41L146.69 271.11C146.46 271.06 146.22 270.98 145.97 270.9C145.73 270.81 145.5 270.7 145.28 270.56C145.07 270.43 144.9 270.26 144.76 270.06Q144.75 270.04 144.74 270.02Q144.57 269.73 144.57 269.34C144.57 269.01 144.67 268.72 144.86 268.46C145.05 268.2 145.32 267.99 145.67 267.85C146.02 267.7 146.43 267.62 146.91 267.62Q147.91 267.62 148.57 268.07ZM166.73 277.9L168.59 277.9L169.66 274.82L174.21 274.82L175.27 277.9L177.13 277.9L172.95 266.26L170.92 266.26L166.73 277.9ZM173.69 273.34L171.98 268.37L171.89 268.37L170.17 273.34L173.69 273.34ZM189.62 277.53C190.17 277.89 190.8 278.07 191.51 278.07C192.04 278.07 192.47 277.98 192.8 277.8C193.13 277.62 193.4 277.41 193.59 277.18C193.78 276.94 193.93 276.73 194.03 276.54L194.17 276.54L194.17 277.9L195.83 277.9L195.83 266.26L194.13 266.26L194.13 270.59L194.03 270.59C193.93 270.4 193.78 270.19 193.6 269.95C193.42 269.72 193.16 269.51 192.82 269.33C192.49 269.15 192.06 269.06 191.52 269.06C190.82 269.06 190.19 269.23 189.64 269.59C189.08 269.95 188.65 270.46 188.33 271.13C188.02 271.8 187.86 272.61 187.86 273.55C187.86 274.49 188.01 275.3 188.32 275.98C188.64 276.65 189.07 277.16 189.62 277.53ZM219.09 277.53C219.64 277.89 220.27 278.07 220.97 278.07C221.51 278.07 221.94 277.98 222.27 277.8C222.6 277.62 222.87 277.41 223.05 277.18C223.25 276.94 223.4 276.73 223.5 276.54L223.64 276.54L223.64 277.9L225.3 277.9L225.3 266.26L223.6 266.26L223.6 270.59L223.5 270.59C223.4 270.4 223.25 270.19 223.07 269.95C222.88 269.72 222.63 269.51 222.29 269.33C221.96 269.15 221.53 269.06 220.99 269.06C220.29 269.06 219.66 269.23 219.11 269.59C218.55 269.95 218.12 270.46 217.8 271.13C217.48 271.8 217.33 272.61 217.33 273.55C217.33 274.49 217.48 275.3 217.79 275.98C218.11 276.65 218.54 277.16 219.09 277.53ZM138.58 269.69C138.89 270.34 139.04 271.13 139.04 272.08Q139.04 273.5 138.58 274.48C138.28 275.12 137.86 275.62 137.33 275.95C136.8 276.29 136.21 276.45 135.54 276.45Q134.81 276.45 134.18 276.19Q133.96 276.09 133.75 275.95C133.22 275.62 132.8 275.12 132.5 274.48Q132.04 273.5 132.04 272.08Q132.04 270.66 132.5 269.69C132.8 269.04 133.22 268.54 133.75 268.21Q133.97 268.07 134.21 267.97Q134.82 267.7 135.54 267.7Q136.24 267.7 136.84 267.95Q137.1 268.06 137.33 268.21Q137.41 268.26 137.48 268.31Q138.17 268.8 138.58 269.69ZM198.25 269.17L198.25 277.9L199.95 277.9L199.95 272.57C199.95 272.19 200.04 271.85 200.23 271.56C200.41 271.26 200.65 271.02 200.96 270.86C201.28 270.69 201.64 270.6 202.04 270.6C202.21 270.6 202.39 270.62 202.56 270.64C202.74 270.66 202.86 270.69 202.93 270.7L202.93 269.08C202.84 269.07 202.73 269.06 202.58 269.05Q202.36 269.04 202.2 269.04C201.69 269.04 201.23 269.18 200.83 269.45C200.43 269.72 200.15 270.09 199.99 270.56L199.9 270.56L199.9 269.17L198.25 269.17ZM180.38 277.9L180.38 272.72C180.38 272.25 180.46 271.86 180.64 271.53C180.81 271.2 181.06 270.95 181.36 270.78C181.67 270.61 182.02 270.53 182.41 270.53Q183.05 270.53 183.49 270.83Q183.64 270.93 183.77 271.07C184.1 271.42 184.26 271.92 184.26 272.55L184.26 277.9L185.96 277.9L185.96 272.35C185.96 271.63 185.84 271.02 185.59 270.53C185.35 270.04 185 269.68 184.55 269.43C184.1 269.18 183.58 269.06 182.99 269.06Q182.01 269.06 181.36 269.48C180.93 269.76 180.62 270.13 180.42 270.59L180.31 270.59L180.31 269.17L178.68 269.17L178.68 277.9L180.38 277.9ZM205.62 277.51C206.23 277.89 206.94 278.07 207.76 278.07C208.58 278.07 209.29 277.89 209.9 277.51C210.51 277.14 210.98 276.61 211.32 275.94C211.66 275.26 211.83 274.48 211.83 273.57C211.83 272.67 211.66 271.88 211.32 271.2C210.98 270.52 210.51 269.99 209.9 269.62C209.29 269.24 208.58 269.06 207.76 269.06C206.94 269.06 206.23 269.24 205.62 269.62C205.01 269.99 204.53 270.52 204.2 271.2C203.86 271.88 203.69 272.67 203.69 273.57C203.69 274.48 203.86 275.26 204.2 275.94C204.53 276.61 205.01 277.14 205.62 277.51ZM126.55 269.17L126.55 277.9L128.25 277.9L128.25 269.17L126.55 269.17ZM213.72 269.17L213.72 277.9L215.42 277.9L215.42 269.17L213.72 269.17ZM209.08 276.23C208.73 276.51 208.29 276.65 207.76 276.65Q207.07 276.65 206.58 276.33Q206.5 276.28 206.44 276.23C206.09 275.95 205.83 275.57 205.66 275.11C205.49 274.64 205.41 274.13 205.41 273.57C205.41 273.01 205.49 272.5 205.66 272.03C205.83 271.56 206.09 271.19 206.44 270.9C206.79 270.62 207.23 270.48 207.76 270.48C208.29 270.48 208.73 270.62 209.08 270.9Q209.17 270.97 209.24 271.04Q209.64 271.44 209.86 272.03C210.03 272.5 210.11 273.01 210.11 273.57Q210.11 274.41 209.86 275.11Q209.65 275.69 209.25 276.08Q209.17 276.16 209.08 276.23ZM193.12 276.23C192.78 276.49 192.37 276.62 191.88 276.62C191.38 276.62 190.95 276.48 190.61 276.22C190.27 275.94 190.01 275.57 189.84 275.11C189.66 274.64 189.57 274.12 189.57 273.53Q189.57 272.67 189.83 271.98Q190.07 271.35 190.52 270.97Q190.56 270.93 190.6 270.9C190.94 270.63 191.37 270.5 191.88 270.5C192.38 270.5 192.79 270.63 193.13 270.88C193.47 271.13 193.72 271.49 193.9 271.94Q194.16 272.62 194.16 273.53C194.16 274.15 194.07 274.69 193.89 275.15C193.72 275.61 193.46 275.97 193.12 276.23ZM222.59 276.23C222.25 276.49 221.84 276.62 221.35 276.62C220.85 276.62 220.42 276.48 220.08 276.22C219.74 275.94 219.48 275.57 219.3 275.11C219.13 274.64 219.04 274.12 219.04 273.53Q219.04 272.67 219.3 271.98Q219.54 271.35 219.99 270.97Q220.03 270.93 220.07 270.9C220.41 270.63 220.84 270.5 221.35 270.5C221.85 270.5 222.26 270.63 222.6 270.88C222.94 271.13 223.19 271.49 223.37 271.94Q223.63 272.62 223.63 273.53C223.63 274.15 223.54 274.69 223.36 275.15C223.19 275.61 222.93 275.97 222.59 276.23Z" fill="#747474" fill-opacity="1.000000" fill-rule="evenodd"/>
		<path id="Наведите камеру устройства на QR-код, чтобы скачать" d="M71.62 302.33L71.62 312.75L75.59 312.75L75.59 308.79L82.1 308.79L82.1 312.75L86.07 312.75L86.07 302.33L82.1 302.33L82.1 306.01L75.59 306.01L75.59 302.33L71.62 302.33ZM97.25 311.07L98.07 312.75L102.42 312.75L96.97 302.33L91.63 302.33L86.47 312.75L90.51 312.75L91.3 311.07L97.25 311.07ZM102.78 302.33L102.78 312.75L112.63 312.75C116.04 312.75 117.03 311.38 117.03 309.74L117.03 309.57C117.03 307.74 115.56 307.12 114.64 306.9C115.32 306.74 116.43 306.15 116.43 304.85L116.43 304.7C116.43 303.51 115.62 302.33 112.58 302.33L102.78 302.33ZM129.31 302.33L117.79 302.33L117.79 312.75L129.42 312.75L129.42 310.14L121.71 310.14L121.71 308.72L129.16 308.72L129.16 306.18L121.71 306.18L121.71 304.88L129.31 304.88L129.31 302.33ZM131.26 309.98L129.89 309.98L129.89 314.57L133.63 314.57L133.63 312.75L142.04 312.75L142.04 314.57L145.78 314.57L145.78 309.98L144.1 309.98L144.1 302.33L131.99 302.33C131.99 306.92 131.86 308.83 131.26 309.98ZM156.99 306.21L156.99 312.75L160.96 312.75L160.96 302.33L156.99 302.33L150.45 308.88L150.45 302.33L146.47 302.33L146.47 312.75L150.45 312.75L156.99 306.21ZM166.44 305.17L166.44 312.75L170.41 312.75L170.41 305.17L174.91 305.17L174.91 302.33L161.94 302.33L161.94 305.17L166.44 305.17ZM187.38 302.33L175.85 302.33L175.85 312.75L187.49 312.75L187.49 310.14L179.77 310.14L179.77 308.72L187.22 308.72L187.22 306.18L179.77 306.18L179.77 304.88L187.38 304.88L187.38 302.33ZM196.74 308.09L201.82 312.75L210.64 312.75L211.44 311.07L217.39 311.07L218.2 312.75L222.55 312.75L217.11 302.33L211.76 302.33L206.73 312.5L200.75 307.06L206.81 302.33L201.87 302.33L196.74 306.45L196.74 302.33L192.77 302.33L192.77 312.75L196.74 312.75L196.74 308.09ZM222.91 302.33L222.91 312.75L226.79 312.75L226.79 306.25L230.43 312.75L232.46 312.75L236.11 306.25L236.11 312.75L240.05 312.75L240.05 302.33L234.81 302.33L231.56 308.18L228.37 302.33L222.91 302.33ZM252.84 302.33L241.31 302.33L241.31 312.75L252.95 312.75L252.95 310.14L245.23 310.14L245.23 308.72L252.68 308.72L252.68 306.18L245.23 306.18L245.23 304.88L252.84 304.88L252.84 302.33ZM257.99 309.49L262.7 309.49C266.5 309.49 267.64 307.89 267.64 306L267.64 305.78C267.64 303.86 266.55 302.33 262.7 302.33L254.02 302.33L254.02 312.75L257.99 312.75L257.99 309.49ZM275.97 310.38L281.29 302.33L277.25 302.33L274.48 306.85L271.41 302.33L266.8 302.33L271.93 309.28C272.05 309.43 272.11 309.58 272.11 309.71L272.11 309.72C272.11 309.88 272.03 309.96 271.75 309.96L269.91 309.96L269.91 312.75L272 312.75C274.31 312.75 274.78 312.17 275.97 310.38ZM106.75 304.7L111.37 304.7C112.2 304.7 112.44 305.01 112.44 305.41L112.44 305.44C112.44 305.83 112.2 306.17 111.37 306.17L106.75 306.17L106.75 304.7ZM94.23 304.88L95.98 308.46L92.52 308.46L94.23 304.88ZM214.36 304.88L216.11 308.46L212.66 308.46L214.36 304.88ZM257.99 306.88L257.99 304.94L262.22 304.94C263.16 304.94 263.54 305.29 263.54 305.89L263.54 305.93C263.54 306.5 263.13 306.88 262.22 306.88L257.99 306.88ZM140.12 309.98L134.94 309.98C135.39 309.09 135.57 307.19 135.57 305.1L140.12 305.1L140.12 309.98ZM106.75 308.51L111.63 308.51C112.65 308.51 112.86 308.91 112.86 309.36L112.86 309.4C112.86 309.81 112.66 310.3 111.63 310.3L106.75 310.3L106.75 308.51ZM144.33 321.8L144.89 321.8C147.38 321.8 148.01 320.16 148.01 319.42L148.01 319.39L145.49 319.39C145.49 319.56 145.38 320.08 144.62 320.08C143.85 320.08 143.73 319.56 143.73 319.39L141.16 319.39L141.16 319.42C141.16 320.16 141.6 321.8 144.33 321.8ZM84.42 332.94L84.96 332.94C91.23 332.94 92.21 330 92.21 328.65L92.21 328.42L88.1 328.42C88.04 328.66 87.73 330.13 84.67 330.13C81.87 330.13 81.17 328.66 81.17 327.54L81.17 327.37C81.17 326.21 81.78 324.94 84.65 324.94C87.68 324.94 88 326.25 88.08 326.53L92.21 326.53L92.21 326.35C92.21 325.01 91.29 322.14 84.96 322.14L84.42 322.14C77.92 322.14 77.05 325.31 77.05 327.3L77.05 327.71C77.05 329.68 78.02 332.94 84.42 332.94ZM128.82 322.14L128.19 322.14C121.44 322.14 120.58 325.34 120.58 327.3L120.58 327.72C120.58 329.67 121.44 332.94 128.19 332.94L128.82 332.94C135.55 332.94 136.4 329.67 136.4 327.72L136.4 327.3C136.4 325.34 135.54 322.14 128.82 322.14ZM160.08 332.94L160.62 332.94C166.9 332.94 167.88 330 167.88 328.65L167.88 328.42L163.76 328.42C163.7 328.66 163.39 330.13 160.33 330.13C157.53 330.13 156.83 328.66 156.83 327.54L156.83 327.37C156.83 326.21 157.45 324.94 160.32 324.94C163.34 324.94 163.66 326.25 163.75 326.53L167.88 326.53L167.88 326.35C167.88 325.01 166.95 322.14 160.62 322.14L160.08 322.14C153.58 322.14 152.71 325.31 152.71 327.3L152.71 327.71C152.71 329.68 153.68 332.94 160.08 332.94ZM257.96 332.9L257.96 334.92L263.36 334.92L261.57 332.85C266.62 332.34 267.37 329.46 267.37 327.72L267.37 327.3C267.37 325.31 266.47 322.14 259.78 322.14L259.15 322.14C252.41 322.14 251.55 325.31 251.55 327.3L251.55 327.72C251.55 329.57 252.34 332.51 257.96 332.9ZM72.65 330.38L77.97 322.33L73.92 322.33L71.15 326.85L68.08 322.33L63.48 322.33L68.6 329.28C68.73 329.43 68.78 329.58 68.78 329.71L68.78 329.72C68.78 329.88 68.7 329.96 68.42 329.96L66.58 329.96L66.58 332.75L68.67 332.75C70.98 332.75 71.46 332.17 72.65 330.38ZM97.08 325.17L97.08 332.75L101.05 332.75L101.05 325.17L105.55 325.17L105.55 322.33L92.58 322.33L92.58 325.17L97.08 325.17ZM110.47 329.49L115.18 329.49C118.98 329.49 120.12 327.89 120.12 326L120.12 325.78C120.12 323.86 119.03 322.33 115.18 322.33L106.5 322.33L106.5 332.75L110.47 332.75L110.47 329.49ZM147.78 326.21L147.78 332.75L151.76 332.75L151.76 322.33L147.78 322.33L141.25 328.88L141.25 322.33L137.27 322.33L137.27 332.75L141.25 332.75L147.78 326.21ZM172.74 325.17L172.74 332.75L176.71 332.75L176.71 325.17L181.21 325.17L181.21 322.33L168.24 322.33L168.24 325.17L172.74 325.17ZM182.16 322.33L182.16 332.75L192.01 332.75C195.41 332.75 196.41 331.38 196.41 329.74L196.41 329.57C196.41 327.74 194.94 327.12 194.01 326.9C194.7 326.74 195.81 326.15 195.81 324.85L195.81 324.7C195.81 323.51 194.99 322.33 191.96 322.33L182.16 322.33ZM206.75 331.07L207.56 332.75L211.92 332.75L206.47 322.33L201.12 322.33L195.97 332.75L200 332.75L200.8 331.07L206.75 331.07ZM216.49 322.33L216.49 332.75L220.46 332.75L220.46 328.79L226.97 328.79L226.97 332.75L230.93 332.75L230.93 322.33L226.97 322.33L226.97 326.01L220.46 326.01L220.46 322.33L216.49 322.33ZM242.12 331.07L242.93 332.75L247.29 332.75L241.84 322.33L236.49 322.33L231.34 332.75L235.37 332.75L236.17 331.07L242.12 331.07ZM272.33 332.75L272.33 329.18L276.14 329.18C277.71 329.18 278.26 329.79 278.26 330.98L278.26 332.2C278.26 332.5 278.28 332.64 278.38 332.75L282.44 332.75L282.44 332.68C282.34 332.5 282.25 332.23 282.25 331.5L282.25 329.96C282.25 328.62 281.39 327.78 280.1 327.48C280.89 327.3 282.2 326.67 282.2 325.16L282.2 325.01C282.2 323.31 280.86 322.33 277.82 322.33L268.36 322.33L268.36 332.75L272.33 332.75ZM186.13 324.7L190.75 324.7C191.58 324.7 191.82 325.01 191.82 325.41L191.82 325.44C191.82 325.83 191.58 326.17 190.75 326.17L186.13 326.17L186.13 324.7ZM272.33 326.66L272.33 324.87L276.9 324.87C277.79 324.87 278.1 325.26 278.1 325.75L278.1 325.76C278.1 326.27 277.78 326.66 276.9 326.66L272.33 326.66ZM203.73 324.88L205.48 328.46L202.02 328.46L203.73 324.88ZM239.1 324.88L240.85 328.46L237.39 328.46L239.1 324.88ZM110.47 326.88L110.47 324.94L114.7 324.94C115.64 324.94 116.02 325.29 116.02 325.89L116.02 325.93C116.02 326.5 115.61 326.88 114.7 326.88L110.47 326.88ZM132.29 327.4L132.29 327.6C132.29 328.72 131.57 330.13 128.49 330.13C125.41 330.13 124.7 328.66 124.7 327.57L124.7 327.4C124.7 326.29 125.36 324.94 128.49 324.94C131.57 324.94 132.29 326.29 132.29 327.4ZM263.25 327.4L263.25 327.6C263.25 328.72 262.54 330.13 259.46 330.13C256.38 330.13 255.66 328.69 255.66 327.57L255.66 327.4C255.66 326.25 256.32 324.94 259.46 324.94C262.54 324.94 263.25 326.27 263.25 327.4ZM287.75 327.29L283.13 327.29L283.13 329.89L287.75 329.89L287.75 327.29ZM186.13 328.51L191 328.51C192.03 328.51 192.24 328.91 192.24 329.36L192.24 329.4C192.24 329.81 192.04 330.3 191 330.3L186.13 330.3L186.13 328.51ZM79.78 342.14L79.15 342.14C72.4 342.14 71.55 345.34 71.55 347.3L71.55 347.72C71.55 349.67 72.4 352.94 79.15 352.94L79.78 352.94C86.52 352.94 87.37 349.67 87.37 347.72L87.37 347.3C87.37 345.34 86.5 342.14 79.78 342.14ZM148.24 342.14L147.61 342.14C140.86 342.14 140 345.34 140 347.3L140 347.72C140 349.67 140.86 352.94 147.61 352.94L148.24 352.94C154.97 352.94 155.82 349.67 155.82 347.72L155.82 347.3C155.82 345.34 154.96 342.14 148.24 342.14ZM202.22 352.94L202.77 352.94C209.04 352.94 210.02 350 210.02 348.65L210.02 348.42L205.9 348.42C205.85 348.66 205.54 350.13 202.47 350.13C199.67 350.13 198.97 348.66 198.97 347.54L198.97 347.37C198.97 346.21 199.59 344.94 202.46 344.94C205.48 344.94 205.8 346.25 205.89 346.53L210.02 346.53L210.02 346.35C210.02 345.01 209.09 342.14 202.77 342.14L202.22 342.14C195.72 342.14 194.86 345.31 194.86 347.3L194.86 347.71C194.86 349.68 195.82 352.94 202.22 352.94ZM62.78 348.09L67.86 352.75L73.04 352.75L66.78 347.06L72.84 342.33L67.9 342.33L62.78 346.45L62.78 342.33L58.8 342.33L58.8 352.75L62.78 352.75L62.78 348.09ZM88.62 349.98L87.25 349.98L87.25 354.57L90.99 354.57L90.99 352.75L99.4 352.75L99.4 354.57L103.14 354.57L103.14 349.98L101.46 349.98L101.46 342.33L89.35 342.33C89.35 346.92 89.23 348.83 88.62 349.98ZM121.87 349.14L121.87 352.75L125.83 352.75L125.83 342.33L121.87 342.33L121.87 346.43C121.2 346.59 120.33 346.64 119.54 346.64C117.75 346.64 116.73 346.36 116.73 344.78L116.73 342.33L112.75 342.33L112.75 345.29C112.75 348.44 114.76 349.42 118.58 349.42C120.09 349.42 121.13 349.29 121.87 349.14ZM131.31 345.17L131.31 352.75L135.28 352.75L135.28 345.17L139.78 345.17L139.78 342.33L126.81 342.33L126.81 345.17L131.31 345.17ZM156.69 342.33L156.69 352.75L165.23 352.75C169.45 352.75 170.5 351.24 170.5 349.37L170.5 349.25C170.5 347.41 169.45 346.03 165.23 346.03L160.67 346.03L160.67 344.78L169.5 344.78L169.5 342.33L156.69 342.33ZM179.65 345.4L175.27 345.4L175.27 342.33L171.29 342.33L171.29 352.75L179.65 352.75C183.87 352.75 184.92 351.11 184.92 349.16L184.92 348.94C184.92 346.99 183.85 345.4 179.65 345.4ZM189.68 352.75L189.68 342.33L185.71 342.33L185.71 352.75L189.68 352.75ZM214.82 348.09L219.9 352.75L228.72 352.75L229.52 351.07L235.47 351.07L236.28 352.75L240.64 352.75L235.19 342.33L229.84 342.33L224.81 352.5L218.83 347.06L224.89 342.33L219.95 342.33L214.82 346.45L214.82 342.33L210.85 342.33L210.85 352.75L214.82 352.75L214.82 348.09ZM247.95 349.14L247.95 352.75L251.91 352.75L251.91 342.33L247.95 342.33L247.95 346.43C247.28 346.59 246.41 346.64 245.63 346.64C243.83 346.64 242.81 346.36 242.81 344.78L242.81 342.33L238.84 342.33L238.84 345.29C238.84 348.44 240.84 349.42 244.66 349.42C246.17 349.42 247.21 349.29 247.95 349.14ZM263.1 351.07L263.91 352.75L268.27 352.75L262.82 342.33L257.47 342.33L252.32 352.75L256.35 352.75L257.15 351.07L263.1 351.07ZM270.64 345.17L270.64 352.75L274.61 352.75L274.61 345.17L279.11 345.17L279.11 342.33L266.14 342.33L266.14 345.17L270.64 345.17ZM288.37 345.4L283.99 345.4L283.99 342.33L280.01 342.33L280.01 352.75L288.37 352.75C292.58 352.75 293.63 351.11 293.63 349.16L293.63 348.94C293.63 346.99 292.57 345.4 288.37 345.4ZM232.45 344.88L234.2 348.46L230.74 348.46L232.45 344.88ZM260.08 344.88L261.83 348.46L258.37 348.46L260.08 344.88ZM83.25 347.4L83.25 347.6C83.25 348.72 82.54 350.13 79.46 350.13C76.38 350.13 75.67 348.66 75.67 347.57L75.67 347.4C75.67 346.29 76.32 344.94 79.46 344.94C82.54 344.94 83.25 346.29 83.25 347.4ZM151.71 347.4L151.71 347.6C151.71 348.72 150.99 350.13 147.91 350.13C144.84 350.13 144.12 348.66 144.12 347.57L144.12 347.4C144.12 346.29 144.78 344.94 147.91 344.94C150.99 344.94 151.71 346.29 151.71 347.4ZM97.49 349.98L92.31 349.98C92.75 349.09 92.94 347.19 92.94 345.1L97.49 345.1L97.49 349.98ZM179.15 350.16L175.27 350.16L175.27 347.99L179.15 347.99C180.44 347.99 180.8 348.45 180.8 349.04L180.8 349.08C180.8 349.64 180.44 350.16 179.15 350.16ZM287.87 350.16L283.99 350.16L283.99 347.99L287.87 347.99C289.15 347.99 289.52 348.45 289.52 349.04L289.52 349.08C289.52 349.64 289.15 350.16 287.87 350.16ZM164.8 350.23L160.67 350.23L160.67 348.38L164.8 348.38C166.04 348.38 166.38 348.76 166.38 349.26L166.38 349.3C166.38 349.79 166.04 350.23 164.8 350.23ZM104.99 354.3L107.05 354.3C107.39 353.81 107.86 352.93 107.86 352.24L107.86 350.02L103.91 350.02L103.91 352.75L105.58 352.75C105.51 353.21 105.26 353.81 104.99 354.3Z" fill="#202020" fill-opacity="1.000000" fill-rule="evenodd"/>
	</g>
</svg>
